<?xml version="1.0" encoding="utf-8"?>
<svg width="253px" height="50px" viewBox="0 0 253 50" version="1.1" xmlns="http://www.w3.org/2000/svg">
  <title>Logo_Parsejob Copy 2</title>
  <desc>Created with Sketch.</desc>
  <g id="Logo_Parsejob-Copy-2" stroke="none" stroke-width="1" fill="none" fill-rule="evenodd">
    <circle id="Oval" fill="#FFFFFF" cx="26.208" cy="25" r="21.5"/>
    <path d="M 25.708 49 C 12.453 49 1.708 38.255 1.708 25 C 1.708 11.745 12.453 1 25.708 1 C 38.963 1 49.708 11.745 49.708 25 C 49.708 38.255 38.963 49 25.708 49 Z M 32.208 29 C 36.902 29 40.708 25.194 40.708 20.5 C 40.708 15.806 36.902 12 32.208 12 L 13.966 12 C 13.829 12 13.708 12.307 13.708 12.624 L 13.708 28.376 C 13.708 28.693 13.829 29 13.966 29 L 32.208 29 Z M 22.708 32.294 C 22.708 32.145 22.668 32 22.622 32 L 13.794 32 C 13.748 32 13.708 32.145 13.708 32.294 L 13.708 39.706 C 13.708 39.855 13.748 40 13.794 40 L 22.622 40 C 22.668 40 22.708 39.855 22.708 39.706 L 22.708 32.294 Z" id="Combined-Shape" fill="#A8DD00"/>
    <path d="M 70.98 25.297 C 70.98 29.433 73.664 32.425 77.228 32.425 C 80.792 32.425 83.476 29.433 83.476 25.297 C 83.476 21.117 80.792 18.169 77.228 18.169 C 73.664 18.169 70.98 21.117 70.98 25.297 Z M 65.348 45.493 L 65.348 13.901 L 70.98 13.901 L 70.98 17.377 C 72.784 14.957 75.644 13.461 78.9 13.461 C 84.972 13.461 89.372 18.433 89.372 25.297 C 89.372 32.117 84.972 37.133 78.68 37.133 C 75.424 37.133 72.784 35.725 70.98 33.393 L 70.98 45.493 L 65.348 45.493 Z M 92.452 30.577 C 92.452 26.001 96.104 23.273 102.924 23.273 C 104.288 23.273 106.004 23.449 107.984 23.757 L 107.984 22.173 C 107.984 19.489 106.224 17.905 103.452 17.905 C 100.724 17.905 99.008 19.181 98.832 21.513 L 93.2 21.513 C 93.42 16.937 96.808 13.461 103.408 13.461 C 109.788 13.461 113.616 16.805 113.616 22.613 L 113.616 36.693 L 107.984 36.693 L 107.984 33.481 C 106.048 35.857 103.232 37.133 100.02 37.133 C 95.752 37.133 92.452 34.889 92.452 30.577 Z M 98.128 30.225 C 98.128 32.073 99.492 32.909 101.648 32.909 C 105.256 32.909 107.676 30.181 107.984 27.673 C 106.4 27.409 104.772 27.233 103.32 27.233 C 99.58 27.233 98.128 28.421 98.128 30.225 Z M 118.676 36.693 L 118.676 13.901 L 124.308 13.901 L 124.308 16.937 C 126.068 14.341 129.104 13.021 132.228 13.637 L 132.228 18.917 C 127.608 18.081 124.308 20.193 124.308 23.977 L 124.308 36.693 L 118.676 36.693 Z M 135.088 29.565 L 140.764 29.565 C 141.028 31.589 142.568 32.909 145.604 32.909 C 148.772 32.909 150.18 31.809 150.18 30.313 C 150.18 25.341 135.66 30.225 135.66 20.501 C 135.66 16.673 139.224 13.461 145.428 13.461 C 151.324 13.461 154.624 16.321 155.196 20.985 L 149.564 20.985 C 149.256 19.005 147.716 17.685 145.252 17.685 C 142.612 17.685 141.204 18.785 141.204 20.281 C 141.204 25.253 155.768 20.193 155.768 30.093 C 155.768 33.877 152.16 37.133 145.428 37.133 C 139.004 37.133 135.66 34.273 135.088 29.565 Z M 159.288 25.297 C 159.288 18.433 164.392 13.461 171.344 13.461 C 178.736 13.461 184.148 19.137 183.224 26.969 L 165.14 26.969 C 165.58 30.313 168.176 32.645 171.344 32.645 C 174.028 32.645 175.744 31.237 176.712 29.301 L 182.652 29.301 C 181.112 34.053 176.888 37.133 171.3 37.133 C 164.348 37.133 159.288 32.117 159.288 25.297 Z M 165.272 23.009 L 177.416 23.009 C 176.8 20.325 174.512 17.949 171.344 17.949 C 168.176 17.949 165.888 20.281 165.272 23.009 Z M 184.236 45.669 L 184.236 40.961 C 187.58 41.665 188.548 40.389 188.548 37.485 L 188.548 13.901 L 194.18 13.901 L 194.18 37.617 C 194.18 43.645 191.364 46.989 184.236 45.669 Z M 188.02 7.389 C 188.02 5.497 189.472 4.045 191.364 4.045 C 193.212 4.045 194.664 5.497 194.664 7.389 C 194.664 9.237 193.212 10.689 191.364 10.689 C 189.472 10.689 188.02 9.237 188.02 7.389 Z M 198.58 25.297 C 198.58 18.433 203.728 13.461 210.724 13.461 C 217.764 13.461 222.868 18.433 222.868 25.297 C 222.868 32.117 217.764 37.133 210.724 37.133 C 203.728 37.133 198.58 32.117 198.58 25.297 Z M 204.476 25.297 C 204.476 29.433 207.16 32.425 210.724 32.425 C 214.288 32.425 216.972 29.433 216.972 25.297 C 216.972 21.117 214.288 18.169 210.724 18.169 C 207.16 18.169 204.476 21.117 204.476 25.297 Z M 232.9 25.297 C 232.9 29.433 235.584 32.425 239.148 32.425 C 242.712 32.425 245.396 29.433 245.396 25.297 C 245.396 21.117 242.712 18.169 239.148 18.169 C 235.584 18.169 232.9 21.117 232.9 25.297 Z M 227.268 36.693 L 227.268 4.133 L 232.9 4.133 L 232.9 17.377 C 234.704 14.957 237.564 13.461 240.82 13.461 C 246.892 13.461 251.292 18.433 251.292 25.297 C 251.292 32.117 246.892 37.133 240.6 37.133 C 237.344 37.133 234.704 35.725 232.9 33.393 L 232.9 36.693 L 227.268 36.693 Z" id="parsejob" fill="#FFFFFF"/>
  </g>
</svg>